<?xml version="1.0" encoding="UTF-8"?>
<svg width="240px" height="49px" viewBox="0 0 240 49" version="1.1" xmlns="http://www.w3.org/2000/svg" xmlns:xlink="http://www.w3.org/1999/xlink">
    <!-- Generator: Sketch 53.2 (72643) - https://sketchapp.com -->
    <title>logo</title>
    <desc>Created with Sketch.</desc>
    <g id="Page-1" stroke="none" stroke-width="1" fill="none" fill-rule="evenodd">
        <g id="logo" transform="translate(0.000000, -1.000000)" fill="#E84C62" fill-rule="nonzero">
            <path d="M4.36189488,13.4436752 L11.2926528,31.4829229 L18.533743,12.1326833 L25.464501,31.4829229 L32.8262761,13.4436752 L37.188171,13.4436752 L25.2920941,42.1456566 L18.4475396,23.0226556 L11.3098934,42.1631366 L0,13.4436752 L4.36189488,13.4436752 Z M57.9325538,23.4072132 L61.8289499,23.4072132 L61.8289499,24.9804034 C63.1852245,23.6169651 64.7138839,22.9352561 66.4149738,22.9352561 C68.3689286,22.9352561 69.8918411,23.5586994 70.9837571,24.8056045 C71.9262528,25.8660565 72.3974937,27.5965485 72.3974937,29.9971322 L72.3974937,40.4326273 L68.5010975,40.4326273 L68.5010975,30.9235664 C68.5010975,29.2454885 68.2712239,28.0860006 67.8114698,27.4450681 C67.3632096,26.7924822 66.5471584,26.4661942 65.3632916,26.4661942 C64.0759804,26.4661942 63.1622328,26.8973605 62.6220218,27.7597061 C62.0933046,28.6103984 61.8289499,30.0961743 61.8289499,32.2170784 L61.8289499,40.4326273 L57.9325538,40.4326273 L57.9325538,23.4072132 Z M89.6726663,10.9090909 L93.5690625,10.9090909 L93.5690625,40.4326273 L89.6726663,40.4326273 L89.6726663,38.6496784 C88.143984,40.1646099 86.4141853,40.9220642 84.4832183,40.9220642 C82.1844479,40.9220642 80.2764972,40.0713847 78.7593087,38.3700001 C77.2536142,36.6336556 76.5007782,34.4661708 76.5007782,31.8674806 C76.5007782,29.327057 77.2536142,27.2061847 78.7593087,25.5048001 C80.2535095,23.7917622 82.1327261,22.9352561 84.3970148,22.9352561 C86.3624634,22.9352561 88.1209964,23.7509762 89.6726663,25.3824408 L89.6726663,10.9090909 Z M80.4661372,31.8674806 C80.4661372,33.4989452 80.8971502,34.8274038 81.7591891,35.8528958 C82.6442156,36.8900412 83.7591025,37.4086061 85.1038832,37.4086061 C86.5406145,37.4086061 87.7014762,36.9075208 88.5865028,35.9053355 C89.4715293,34.8681901 89.914036,33.5513847 89.914036,31.95488 C89.914036,30.3583753 89.4715293,29.0415701 88.5865028,28.0044246 C87.7014762,26.9905858 86.5521082,26.4836741 85.1383645,26.4836741 C83.8050777,26.4836741 82.6901909,26.9964124 81.7936704,28.0219045 C80.9086439,29.0590499 80.4661372,30.3408958 80.4661372,31.8674806 Z M113.757912,32.8463545 L101.723909,32.8463545 C101.827354,34.2447527 102.275608,35.3576281 103.068683,36.1850137 C103.861759,37.0007461 104.87895,37.4086061 106.120286,37.4086061 C107.085769,37.4086061 107.88458,37.1755433 108.516742,36.7094104 C109.13741,36.2432777 109.844271,35.380945 110.637347,34.1223865 L113.913078,35.975255 C113.407349,36.8492539 112.872893,37.5979685 112.309694,38.2214211 C111.746495,38.8448736 111.143077,39.357612 110.499421,39.7596515 C109.855766,40.161691 109.160398,40.4559328 108.413298,40.6423861 C107.666197,40.8288392 106.855893,40.9220642 105.98236,40.9220642 C103.476701,40.9220642 101.465307,40.1063441 99.9481183,38.4748795 C98.4309298,36.8317615 97.672347,34.6526235 97.672347,31.9374001 C97.672347,29.2454834 98.4079425,27.0663455 99.8791555,25.3999208 C101.361862,23.7568028 103.327282,22.9352561 105.775472,22.9352561 C108.24665,22.9352561 110.200576,23.7334965 111.637307,25.3300012 C113.062544,26.9148526 113.775153,29.1114703 113.775153,31.9199202 L113.757912,32.8463545 Z M109.775312,29.6300545 C109.235101,27.5324571 107.930569,26.4836741 105.861675,26.4836741 C105.390428,26.4836741 104.947921,26.5565062 104.534142,26.7021727 C104.120364,26.8478392 103.743945,27.0575958 103.404877,27.3314487 C103.065808,27.6053018 102.775593,27.9345032 102.534222,28.3190627 C102.292851,28.7036222 102.108952,29.140615 101.98252,29.6300545 L109.775312,29.6300545 Z M117.999122,23.4072132 L121.878278,23.4072132 L121.878278,24.9279638 C122.590896,24.1704979 123.223048,23.6519331 123.774754,23.3722535 C124.337953,23.0809205 125.004585,22.9352561 125.774674,22.9352561 C126.797627,22.9352561 127.866538,23.2731973 128.981442,23.9490898 L127.205651,27.5499474 C126.470045,27.0138948 125.75169,26.7458724 125.050565,26.7458724 C122.935696,26.7458724 121.878278,28.3656595 121.878278,31.6052822 L121.878278,40.4326273 L117.999122,40.4326273 L117.999122,23.4072132 Z M135.084647,10.9090909 L135.084647,25.3824408 C136.636318,23.7509762 138.39485,22.9352561 140.360298,22.9352561 C142.624588,22.9352561 144.50955,23.7917622 146.015245,25.5048001 C147.520939,27.2061847 148.273776,29.327057 148.273776,31.8674806 C148.273776,34.4894773 147.515193,36.6569622 145.998005,38.3700001 C144.49231,40.0713847 142.590107,40.9220642 140.291336,40.9220642 C138.348875,40.9220642 136.61333,40.1646099 135.084647,38.6496784 L135.084647,40.4326273 L131.205491,40.4326273 L131.205491,10.9090909 L135.084647,10.9090909 Z M144.308417,32.0422795 C144.308417,30.4108148 143.871657,29.0823564 142.998125,28.0568642 C142.113098,27.0080656 141.003958,26.4836741 139.67067,26.4836741 C138.245433,26.4836741 137.084572,26.9905858 136.188051,28.0044246 C135.303024,29.0066101 134.860518,30.3117622 134.860518,31.9199202 C134.860518,33.5746915 135.297278,34.8973234 136.170811,35.8878555 C137.044343,36.9016943 138.193712,37.4086061 139.618949,37.4086061 C140.96373,37.4086061 142.078616,36.9016943 142.963642,35.8878555 C143.860164,34.8623635 144.308417,33.5805176 144.308417,32.0422795 Z M167.669554,32.8463545 L155.635552,32.8463545 C155.738995,34.2447527 156.18725,35.3576281 156.980325,36.1850137 C157.773401,37.0007461 158.790592,37.4086061 160.031927,37.4086061 C160.997411,37.4086061 161.796222,37.1755433 162.428383,36.7094104 C163.049051,36.2432777 163.755913,35.380945 164.548988,34.1223865 L167.82472,35.975255 C167.31899,36.8492539 166.784535,37.5979685 166.221336,38.2214211 C165.658137,38.8448736 165.054719,39.357612 164.411063,39.7596515 C163.767407,40.161691 163.07204,40.4559328 162.324939,40.6423861 C161.577839,40.8288392 160.767535,40.9220642 159.894001,40.9220642 C157.388342,40.9220642 155.376948,40.1063441 153.85976,38.4748795 C152.342571,36.8317615 151.583989,34.6526235 151.583989,31.9374001 C151.583989,29.2454834 152.319584,27.0663455 153.790798,25.3999208 C155.273504,23.7568028 157.238922,22.9352561 159.687114,22.9352561 C162.158291,22.9352561 164.112217,23.7334965 165.548948,25.3300012 C166.974185,26.9148526 167.686794,29.1114703 167.686794,31.9199202 L167.669554,32.8463545 Z M163.686954,29.6300545 C163.146743,27.5324571 161.84221,26.4836741 159.773316,26.4836741 C159.302069,26.4836741 158.859562,26.5565062 158.445783,26.7021727 C158.032005,26.8478392 157.655587,27.0575958 157.316519,27.3314487 C156.97745,27.6053018 156.687234,27.9345032 156.445863,28.3190627 C156.204492,28.7036222 156.020594,29.140615 155.894161,29.6300545 L163.686954,29.6300545 Z M184.289579,23.4072132 L188.185976,23.4072132 L188.185976,40.4326273 L184.289579,40.4326273 L184.289579,38.6496784 C182.691935,40.1646099 180.973629,40.9220642 179.134613,40.9220642 C176.812855,40.9220642 174.893411,40.0713847 173.376222,38.3700001 C171.870527,36.6336556 171.117692,34.4661708 171.117692,31.8674806 C171.117692,29.3154036 171.870527,27.1887048 173.376222,25.4873202 C174.881916,23.7859356 176.76688,22.9352561 179.031168,22.9352561 C180.985124,22.9352561 182.73791,23.7509762 184.289579,25.3824408 L184.289579,23.4072132 Z M175.083051,31.8674806 C175.083051,33.4989452 175.514063,34.8274038 176.376103,35.8528958 C177.261128,36.8900412 178.376016,37.4086061 179.720796,37.4086061 C181.157528,37.4086061 182.318389,36.9075208 183.203416,35.9053355 C184.088442,34.8681901 184.530949,33.5513847 184.530949,31.95488 C184.530949,30.3583753 184.088442,29.0415701 183.203416,28.0044246 C182.318389,26.9905858 181.169022,26.4836741 179.755278,26.4836741 C178.421992,26.4836741 177.307104,26.9964124 176.410584,28.0219045 C175.525558,29.0590499 175.083051,30.3408958 175.083051,31.8674806 Z M196.961487,23.4072132 L196.961487,33.1784724 C196.961487,35.9985756 198.059135,37.4086061 200.254459,37.4086061 C202.449785,37.4086061 203.547432,35.9985756 203.547432,33.1784724 L203.547432,23.4072132 L207.426588,23.4072132 L207.426588,33.2658719 C207.426588,34.6293102 207.259928,35.8062778 206.926607,36.7968099 C206.604779,37.6824622 206.047336,38.4807025 205.254261,39.191555 C203.943961,40.3452336 202.277378,40.9220642 200.254459,40.9220642 C198.243036,40.9220642 196.582199,40.3452336 195.271901,39.191555 C194.467331,38.4807025 193.898394,37.6824622 193.565072,36.7968099 C193.243244,36.0043842 193.082332,34.8274166 193.082332,33.2658719 L193.082332,23.4072132 L196.961487,23.4072132 Z M216.322784,27.0779903 L216.322784,40.4326273 L212.443629,40.4326273 L212.443629,27.0779903 L210.788522,27.0779903 L210.788522,23.4072132 L212.443629,23.4072132 L212.443629,17.166892 L216.322784,17.166892 L216.322784,23.4072132 L219.339905,23.4072132 L219.339905,27.0779903 L216.322784,27.0779903 Z M228.741829,37.268767 L221.190406,23.4072132 L225.690227,23.4072132 L230.827953,33.1959524 L235.620864,23.4072132 L240,23.4072132 L226.621223,49.6969697 L222.190366,49.6969697 L228.741829,37.268767 Z" id="Wonderbeauty-Copy"></path>
            <path d="M39.7784777,38.4677423 C39.4937276,38.2512321 39.2187482,38.015076 38.9535393,37.7592738 C37.2269287,36.1161098 36.3636364,34.0510835 36.3636364,31.5641327 C36.3636364,29.2215139 37.2444279,27.2286524 39.0060373,25.5854885 C39.8812124,24.7691577 40.8514,24.1556082 41.916608,23.7448371 C41.9102702,23.6665578 41.9070396,23.5874005 41.9070396,23.5074887 C41.9070396,21.9050742 43.2060532,20.6060606 44.8084676,20.6060606 L46.0986789,20.6060606 C47.7010933,20.6060606 49.0001069,21.9050742 49.0001069,23.5074887 C49.0001069,23.5885301 48.9967844,23.6687953 48.990268,23.7481558 C50.0621851,24.1617059 51.0389441,24.7797004 51.920553,25.6021421 C53.6704961,27.2564085 54.5454545,29.288128 54.5454545,31.6973616 C54.5454545,34.1288 53.664663,36.1660707 51.9030536,37.8092345 C51.6514994,38.0407564 51.3918463,38.2558561 51.1240942,38.4545342 C51.1991918,38.6690005 51.2400229,38.8995682 51.2400229,39.1396726 C51.2400229,40.2842543 50.3121561,41.2121212 49.1675743,41.2121212 L41.7395722,41.2121212 C40.5949904,41.2121212 39.6671236,40.2842543 39.6671236,39.1396726 C39.6671236,38.9044897 39.7062981,38.6784565 39.7784777,38.4677423 Z M40.3884855,31.6307472 C40.3884855,33.2517061 40.8434639,34.5340208 41.7534343,35.4777299 C42.6867372,36.4325413 43.9175121,36.9099399 45.4457958,36.9099399 C46.9857457,36.9099399 48.2165206,36.4380925 49.1381573,35.4943835 C50.0597941,34.5506745 50.5206055,33.2905644 50.5206055,31.7140152 C50.5206055,30.1374659 50.0597941,28.8773558 49.1381573,27.9336468 C48.2048543,26.9788354 46.9740794,26.5014367 45.4457958,26.5014367 C43.9408447,26.5014367 42.7217359,26.9788354 41.788433,27.9336468 C40.8551299,28.8884583 40.3884855,30.1208127 40.3884855,31.6307472 Z" id="Combined-Shape"></path>
            <path d="M52.1563486,16.5255017 C52.4758282,16.8380817 52.6570427,17.2794683 52.6318534,17.7466232 C52.6099859,18.1521045 52.5440058,18.5404868 52.4339093,18.91177 C52.3449072,19.2119159 52.2319035,19.5027591 52.0948983,19.7842993 L52.0948692,19.7842853 C51.7074191,20.5804794 50.7812644,20.9555228 49.9489939,20.6532507 C49.5192888,20.4971862 49.2974593,20.0223261 49.4535238,19.5926211 C49.496689,19.4737707 49.5665084,19.3663888 49.6576241,19.2787154 C49.7571406,19.1829382 49.8216393,19.1191753 49.85111,19.087416 C50.3248492,18.5768885 50.6511454,18.1172809 50.8299985,17.708593 C51.0047583,17.3092586 51.06962,16.9478779 51.0245833,16.6244506 C51.0199161,16.5909306 51.0193117,16.5577819 51.0223945,16.5255017 L50.986121,16.5255017 L50.986121,12.8533119 L52.2128146,12.8533119 L52.2128146,16.5255017 L52.1563486,16.5255017 Z M51.7469061,-0.121758988 C53.3925123,-0.121758988 54.7500345,1.16667566 54.8359115,2.81003956 L55.1654927,9.11699445 C55.2678374,11.0754887 53.7631309,12.7461287 51.8046366,12.8484734 C51.7429187,12.8516985 51.6811272,12.8533119 51.6193252,12.8533119 C49.6962761,12.8533119 48.1373367,11.2943726 48.1373367,9.37132344 C48.1373367,9.28798039 48.140329,9.20466419 48.1463078,9.12153587 L48.6005018,2.80647602 C48.719183,1.15634558 50.0925133,-0.121758988 51.7469061,-0.121758988 Z" id="Combined-Shape" transform="translate(51.653878, 10.317854) rotate(40.000000) translate(-51.653878, -10.317854) "></path>
        </g>
    </g>
</svg>